<?xml version="1.0" standalone="no"?>
<!DOCTYPE svg PUBLIC "-//W3C//DTD SVG 20010904//EN"
 "http://www.w3.org/TR/2001/REC-SVG-20010904/DTD/svg10.dtd">
<svg version="1.0" xmlns="http://www.w3.org/2000/svg"
 width="1565.000000pt" height="1581.000000pt" viewBox="0 0 1565.000000 1581.000000"
 preserveAspectRatio="xMidYMid meet">

<g transform="translate(0.000000,1581.000000) scale(0.100000,-0.100000)"
fill="#ffffff" stroke="none">
<path d="M3080 13835 l0 -1085 205 0 205 0 0 885 0 885 4335 0 4335 0 0 -885
0 -885 205 0 205 0 0 1085 0 1085 -4745 0 -4745 0 0 -1085z"/>
<path d="M1376 10857 c83 -58 136 -152 166 -297 16 -79 24 -2335 8 -2485 -19
-185 -77 -319 -174 -400 l-41 -35 343 0 342 0 0 1625 0 1625 -346 0 -346 0 48
-33z"/>
<path d="M2840 10876 c171 -63 339 -203 434 -361 l36 -60 0 218 0 217 -252 -1
c-219 0 -248 -2 -218 -13z"/>
<path d="M4628 10833 c68 -67 111 -150 138 -263 16 -69 18 -169 22 -1205 2
-780 0 -1170 -8 -1258 -18 -212 -64 -325 -169 -419 l-53 -48 346 0 346 0 0
1625 0 1625 -340 0 -341 0 59 -57z"/>
<path d="M5910 10867 c100 -36 158 -74 240 -156 90 -91 140 -174 179 -296 79
-245 63 -506 -44 -732 -85 -180 -204 -299 -370 -371 -62 -27 -57 -27 56 -2
195 44 390 118 494 190 182 125 305 373 305 614 0 171 -41 305 -135 444 -150
225 -331 314 -660 328 l-130 5 65 -24z"/>
<path d="M8473 10830 c71 -66 119 -145 142 -236 28 -112 35 -351 35 -1329 0
-935 -5 -1165 -31 -1310 -17 -97 -69 -194 -139 -259 l-61 -56 457 0 458 0 -55
49 c-63 56 -118 152 -143 246 -30 119 -36 325 -36 1330 0 1004 6 1212 36 1329
29 112 86 204 162 262 l45 34 -467 0 -467 0 64 -60z"/>
<path d="M10710 10858 c81 -39 174 -130 222 -218 20 -36 318 -725 664 -1532
546 -1277 630 -1468 648 -1468 18 0 38 39 133 260 l111 260 -552 1363 -551
1362 -370 2 -370 3 65 -32z"/>
<path d="M13620 9588 c0 -1305 -5 -1533 -36 -1651 -29 -112 -80 -196 -158
-258 l-49 -39 473 0 473 0 -39 28 c-91 66 -153 161 -179 274 -8 35 -19 126
-24 203 -14 180 -14 2087 -1 2248 20 241 59 346 161 441 l60 56 -340 0 -341 0
0 -1302z"/>
<path d="M2931 9686 c-37 -59 -162 -169 -238 -209 -83 -43 -190 -73 -298 -83
-42 -4 -78 -10 -80 -14 -2 -4 26 -10 63 -13 255 -24 456 -148 556 -342 l25
-50 1 373 c0 204 -2 372 -4 372 -2 0 -14 -15 -25 -34z"/>
<path d="M5952 9151 c-46 -16 -86 -32 -89 -35 -3 -3 19 -36 49 -73 183 -224
349 -543 681 -1305 l42 -98 239 0 238 0 -53 58 c-112 122 -240 351 -519 931
-237 491 -277 543 -429 549 -63 2 -90 -2 -159 -27z"/>
<path d="M10872 8293 c-3 -71 -32 -259 -51 -335 -41 -159 -89 -247 -160 -295
l-34 -23 244 0 c242 0 244 0 214 19 -47 29 -72 61 -108 141 -52 112 -80 255
-100 495 l-4 40 -1 -42z"/>
<path d="M3080 4760 l0 -1090 4745 0 4745 0 0 1090 0 1090 -205 0 -205 0 0
-890 0 -890 -4335 0 -4335 0 0 890 0 890 -205 0 -205 0 0 -1090z"/>
<path d="M7239 1787 c-192 -55 -287 -218 -276 -477 9 -211 81 -333 236 -397
45 -18 75 -23 153 -23 191 0 302 74 369 249 16 42 23 85 26 171 8 190 -31 306
-134 400 -29 26 -74 56 -100 65 -63 22 -214 29 -274 12z m254 -71 c102 -44
170 -151 186 -294 33 -294 -91 -476 -324 -476 -149 0 -242 64 -300 204 -13 32
-19 80 -23 167 -4 104 -1 132 17 190 48 161 159 238 326 229 44 -2 97 -12 118
-20z"/>
<path d="M12512 1785 c-71 -20 -106 -39 -160 -88 -98 -91 -135 -189 -135 -357
1 -178 49 -299 151 -377 74 -56 137 -73 270 -72 148 1 196 14 200 53 3 26 1
28 -20 22 -76 -21 -184 -29 -250 -18 -88 15 -133 39 -186 96 -54 58 -80 120
-95 218 -29 204 58 396 208 454 69 26 230 27 298 0 50 -19 63 -15 69 19 2 16
-7 23 -52 38 -75 26 -229 32 -298 12z"/>
<path d="M1447 1783 c-4 -3 -7 -204 -7 -445 l0 -438 245 0 245 0 0 25 0 25
-212 2 -213 3 -3 418 -2 417 -23 0 c-13 0 -27 -3 -30 -7z"/>
<path d="M2986 1758 c-8 -18 -88 -219 -179 -446 l-166 -413 37 3 37 3 60 153
59 152 181 0 180 0 60 -155 60 -155 37 0 38 0 -17 43 c-10 23 -88 222 -174
442 -133 339 -160 400 -178 403 -16 3 -25 -5 -35 -30z m111 -285 c40 -108 73
-198 73 -200 0 -2 -70 -3 -156 -3 -121 0 -155 3 -151 13 39 94 147 378 147
388 0 28 16 -10 87 -198z"/>
<path d="M4110 1778 c0 -7 53 -206 118 -443 l119 -430 29 0 29 0 87 310 c48
171 97 350 109 398 13 50 25 83 29 75 4 -7 56 -187 116 -400 109 -387 109
-388 136 -388 21 0 28 6 37 33 21 67 231 835 231 846 0 6 -13 11 -29 11 -26 0
-30 -5 -44 -57 -31 -109 -185 -688 -188 -707 -2 -11 -54 156 -115 370 l-111
389 -35 3 -35 3 -73 -258 c-40 -142 -88 -313 -105 -381 -18 -67 -34 -125 -37
-127 -3 -3 -11 21 -18 52 -10 49 -169 641 -186 696 -6 20 -64 25 -64 5z"/>
<path d="M8640 1345 l0 -445 30 0 30 0 0 195 0 195 203 2 202 3 3 27 3 28
-203 2 -203 3 0 185 0 185 213 3 212 2 0 30 0 30 -245 0 -245 0 0 -445z"/>
<path d="M9957 1783 c-4 -3 -7 -204 -7 -445 l0 -438 30 0 30 0 0 195 0 195
203 2 202 3 3 27 3 28 -203 2 -203 3 0 185 0 185 213 3 212 2 0 30 0 30 -238
0 c-131 0 -242 -3 -245 -7z"/>
<path d="M11267 1784 c-4 -4 -7 -205 -7 -446 l0 -438 35 0 35 0 -2 443 -3 442
-25 3 c-14 2 -29 0 -33 -4z"/>
<path d="M13720 1345 l0 -445 245 0 245 0 0 25 0 25 -212 2 -213 3 0 190 0
190 198 3 197 2 0 25 0 25 -197 2 -198 3 0 165 0 165 213 3 213 2 -3 28 -3 27
-242 3 -243 2 0 -445z"/>
</g>
</svg>
